<?xml version="1.0" encoding="UTF-8"?>
<svg id="_레이어_1" data-name="레이어 1" xmlns="http://www.w3.org/2000/svg" viewBox="0 0 32 32">
  <defs>
    <style>
      .cls-1 {
        fill: #a6917a;
      }
    </style>
  </defs>
  <path class="cls-1" d="M16,.1L2.32,8l-.09.05v15.9l13.77,7.95,13.68-7.9.09-.05v-15.9L16,.1ZM17.37,21.77l-1.39,3.98-1.43-3.81,2.82-.18ZM9.28,14.86l-4.13,6.86-1.5.87v-13.24l2.22,1.28,3.41,4.24ZM25.6,9.93l-9.16-5.81v-2.12l11.44,6.6-2.28,1.32ZM25.19,20.77l.89-10.11,2.27-1.31v13.24l-3.15-1.82ZM10.94,15.19l3.51-5.87,1.24-.22,4.71,3.95-2.46,7.07-3.99.25-.98-2.6-2.04-2.58ZM12,18.24l.83,2.2-5.23.33,2.74-4.59,1.66,2.06ZM12.4,9.68l-2.52,4.2-2.63-3.28,5.16-.92ZM5.56,22.5l7.86-.49,2.14,5.67v2.32l-11.5-6.64,1.5-.86ZM16.44,27.75l2.1-6.06,5.85-.36,3.53,2.03-11.49,6.64v-2.25ZM24.43,11.08l-.76,8.68-4.55.28,2.56-7.35-5.61-4.7-.06-.06-.82.15,1.23-2.06,8.02,5.05ZM4.12,8.61L15.56,2v2.41l-2.43,4.04-7.06,1.28-1.95-1.13Z"/>
</svg>